{
.appVersion = "3260";
.formatVersion = 3;
DisplayStrings = (
"/nbspace"
);
axes = (
{
hidden = 1;
name = "tabular width";
tag = xtab;
}
);
customParameters = (
{
name = "Color Palettes";
value = (
(
(128,255)
)
);
}
);
date = "2024-06-18 10:31:54 +0000";
familyName = "Hidden Characters";
featurePrefixes = (
{
automatic = 1;
code = "languagesystem DFLT dflt;
";
name = Languagesystems;
}
);
fontMaster = (
{
axesValues = (
0
);
id = m01;
metricValues = (
{
pos = 1950;
},
{
over = 34;
pos = 1443;
},
{
over = 19;
pos = 1078;
},
{
over = -19;
},
{
pos = -494;
},
{
}
);
name = Regular;
},
{
axesValues = (
1
);
id = m002;
metricValues = (
{
pos = 1950;
},
{
over = 34;
pos = 1443;
},
{
over = 19;
pos = 1078;
},
{
over = -19;
},
{
pos = -494;
},
{
}
);
name = Monospace;
}
);
glyphs = (
{
glyphname = space;
lastChange = "2024-06-18 11:14:31 +0000";
layers = (
{
layerId = m01;
width = 576;
},
{
layerId = m002;
width = 1290;
},
{
associatedMasterId = m01;
attr = {
colorPalette = 0;
};
layerId = "C5270F25-9C4F-463E-8A86-1E416E8C2E5A";
name = "18. Juni 24, 13:11";
shapes = (
{
closed = 1;
nodes = (
(359,392,o),
(416,449,o),
(416,520,cs),
(416,591,o),
(359,648,o),
(288,648,cs),
(217,648,o),
(160,591,o),
(160,520,cs),
(160,449,o),
(217,392,o),
(288,392,cs)
);
}
);
width = 576;
},
{
associatedMasterId = m002;
attr = {
colorPalette = 0;
};
layerId = "F18DD9C8-96D5-4D7E-9A42-3A8C35ECB5FF";
name = "18. Juni 24, 13:14";
shapes = (
{
closed = 1;
nodes = (
(716,392,o),
(773,449,o),
(773,520,cs),
(773,591,o),
(716,648,o),
(645,648,cs),
(574,648,o),
(517,591,o),
(517,520,cs),
(517,449,o),
(574,392,o),
(645,392,cs)
);
}
);
width = 1290;
}
);
unicode = 32;
},
{
glyphname = nbspace;
lastChange = "2024-06-18 13:11:35 +0000";
layers = (
{
layerId = m01;
width = 576;
},
{
layerId = m002;
width = 1290;
},
{
associatedMasterId = m01;
attr = {
colorPalette = 0;
};
layerId = "C7CE7529-34DC-443E-B2B7-E542EBD4ED71";
name = "18. Juni 24, 13:11";
shapes = (
{
closed = 1;
nodes = (
(138,-308,l),
(313,269,l),
(263,269,l),
(438,-308,l),
(566,-308,l),
(386,278,l),
(190,278,l),
(10,-308,l)
);
},
{
closed = 1;
nodes = (
(359,392,o),
(416,449,o),
(416,520,cs),
(416,591,o),
(359,648,o),
(288,648,cs),
(217,648,o),
(160,591,o),
(160,520,cs),
(160,449,o),
(217,392,o),
(288,392,cs)
);
}
);
width = 576;
},
{
associatedMasterId = m002;
attr = {
colorPalette = 0;
};
layerId = "081B929D-48A9-4CC7-A5EE-E7B94377B7E9";
name = "18. Juni 24, 13:15";
shapes = (
{
closed = 1;
nodes = (
(495,-308,l),
(670,269,l),
(620,269,l),
(795,-308,l),
(923,-308,l),
(743,278,l),
(547,278,l),
(367,-308,l)
);
},
{
closed = 1;
nodes = (
(716,392,o),
(773,449,o),
(773,520,cs),
(773,591,o),
(716,648,o),
(645,648,cs),
(574,648,o),
(517,591,o),
(517,520,cs),
(517,449,o),
(574,392,o),
(645,392,cs)
);
}
);
width = 1290;
}
);
metricWidth = space;
unicode = 160;
},
{
glyphname = enspace;
lastChange = "2024-06-18 11:16:46 +0000";
layers = (
{
layerId = m01;
width = 1024;
},
{
layerId = m002;
width = 1290;
},
{
associatedMasterId = m01;
attr = {
colorPalette = 0;
};
layerId = "02DBA6D4-25D9-4B9B-BEB3-654278FD5FCB";
name = "18. Juni 24, 13:11";
shapes = (
{
closed = 1;
nodes = (
(928,-210,l),
(928,-64,l),
(96,-64,l),
(96,-210,l)
);
},
{
closed = 1;
nodes = (
(583,392,o),
(640,449,o),
(640,520,cs),
(640,591,o),
(583,648,o),
(512,648,cs),
(441,648,o),
(384,591,o),
(384,520,cs),
(384,449,o),
(441,392,o),
(512,392,cs)
);
}
);
width = 1024;
},
{
associatedMasterId = m002;
attr = {
colorPalette = 0;
};
layerId = "D954007B-DFE4-477E-A6D7-FA6FDAF33771";
name = "18. Juni 24, 13:16";
shapes = (
{
closed = 1;
nodes = (
(1061,-210,l),
(1061,-64,l),
(229,-64,l),
(229,-210,l)
);
},
{
closed = 1;
nodes = (
(716,392,o),
(773,449,o),
(773,520,cs),
(773,591,o),
(716,648,o),
(645,648,cs),
(574,648,o),
(517,591,o),
(517,520,cs),
(517,449,o),
(574,392,o),
(645,392,cs)
);
}
);
width = 1290;
}
);
unicode = 8194;
},
{
glyphname = emspace;
lastChange = "2024-06-18 11:17:20 +0000";
layers = (
{
layerId = m01;
width = 2048;
},
{
layerId = m002;
width = 1290;
},
{
associatedMasterId = m01;
attr = {
colorPalette = 0;
};
layerId = "67DB7570-50FA-4EA5-9C5D-56B3927722B6";
name = "18. Juni 24, 13:11";
shapes = (
{
closed = 1;
nodes = (
(1952,-210,l),
(1952,-64,l),
(96,-64,l),
(96,-210,l)
);
},
{
closed = 1;
nodes = (
(1095,392,o),
(1152,449,o),
(1152,520,cs),
(1152,591,o),
(1095,648,o),
(1024,648,cs),
(953,648,o),
(896,591,o),
(896,520,cs),
(896,449,o),
(953,392,o),
(1024,392,cs)
);
}
);
width = 2048;
},
{
associatedMasterId = m002;
attr = {
colorPalette = 0;
};
layerId = "8BFAA882-2C84-4955-9F8E-5D59B0D6FF25";
name = "18. Juni 24, 13:17";
shapes = (
{
closed = 1;
nodes = (
(1290,-210,l),
(1290,-64,l),
(0,-64,l),
(0,-210,l)
);
},
{
closed = 1;
nodes = (
(716,392,o),
(773,449,o),
(773,520,cs),
(773,591,o),
(716,648,o),
(645,648,cs),
(574,648,o),
(517,591,o),
(517,520,cs),
(517,449,o),
(574,392,o),
(645,392,cs)
);
}
);
width = 1290;
}
);
unicode = 8195;
},
{
glyphname = threeperemspace;
lastChange = "2024-06-18 11:33:24 +0000";
layers = (
{
layerId = m01;
width = 682;
},
{
layerId = m002;
width = 1290;
},
{
associatedMasterId = m01;
attr = {
colorPalette = 0;
};
layerId = "F9FE7ABE-ADC2-4357-AE48-34EFC51AA3E4";
name = "18. Juni 24, 13:32";
shapes = (
{
closed = 1;
nodes = (
(452,1040,o),
(541,1129,o),
(541,1240,cs),
(541,1351,o),
(452,1440,o),
(341,1440,cs),
(230,1440,o),
(141,1351,o),
(141,1240,cs),
(141,1129,o),
(230,1040,o),
(341,1040,cs)
);
},
{
closed = 1;
nodes = (
(412,392,o),
(469,449,o),
(469,520,cs),
(469,591,o),
(412,648,o),
(341,648,cs),
(270,648,o),
(213,591,o),
(213,520,cs),
(213,449,o),
(270,392,o),
(341,392,cs)
);
}
);
width = 682;
},
{
associatedMasterId = m002;
attr = {
colorPalette = 0;
};
layerId = "14E8F2AF-BBF8-49D5-B987-2C96F9121963";
name = "18. Juni 24, 13:32";
shapes = (
{
closed = 1;
nodes = (
(756,1040,o),
(845,1129,o),
(845,1240,cs),
(845,1351,o),
(756,1440,o),
(645,1440,cs),
(534,1440,o),
(445,1351,o),
(445,1240,cs),
(445,1129,o),
(534,1040,o),
(645,1040,cs)
);
},
{
closed = 1;
nodes = (
(716,392,o),
(773,449,o),
(773,520,cs),
(773,591,o),
(716,648,o),
(645,648,cs),
(574,648,o),
(517,591,o),
(517,520,cs),
(517,449,o),
(574,392,o),
(645,392,cs)
);
}
);
width = 1290;
}
);
unicode = 8196;
},
{
glyphname = fourperemspace;
lastChange = "2024-06-18 11:33:50 +0000";
layers = (
{
layerId = m01;
width = 512;
},
{
layerId = m002;
width = 1290;
},
{
associatedMasterId = m01;
attr = {
colorPalette = 0;
};
layerId = "97DA09BC-2242-4CB3-99B3-530D40C1524E";
name = "18. Juni 24, 13:32";
shapes = (
{
closed = 1;
nodes = (
(367,-400,o),
(456,-311,o),
(456,-200,cs),
(456,-89,o),
(367,0,o),
(256,0,cs),
(145,0,o),
(56,-89,o),
(56,-200,cs),
(56,-311,o),
(145,-400,o),
(256,-400,cs)
);
},
{
closed = 1;
nodes = (
(327,392,o),
(384,449,o),
(384,520,cs),
(384,591,o),
(327,648,o),
(256,648,cs),
(185,648,o),
(128,591,o),
(128,520,cs),
(128,449,o),
(185,392,o),
(256,392,cs)
);
}
);
width = 512;
},
{
associatedMasterId = m002;
attr = {
colorPalette = 0;
};
layerId = "D1F117A4-88C8-4C3B-A752-5FA2C4FA59A9";
name = "18. Juni 24, 13:33";
shapes = (
{
closed = 1;
nodes = (
(756,-400,o),
(845,-311,o),
(845,-200,cs),
(845,-89,o),
(756,0,o),
(645,0,cs),
(534,0,o),
(445,-89,o),
(445,-200,cs),
(445,-311,o),
(534,-400,o),
(645,-400,cs)
);
},
{
closed = 1;
nodes = (
(716,392,o),
(773,449,o),
(773,520,cs),
(773,591,o),
(716,648,o),
(645,648,cs),
(574,648,o),
(517,591,o),
(517,520,cs),
(517,449,o),
(574,392,o),
(645,392,cs)
);
}
);
width = 1290;
}
);
unicode = 8197;
},
{
glyphname = sixperemspace;
lastChange = "2024-06-18 11:34:40 +0000";
layers = (
{
layerId = m01;
width = 340;
},
{
layerId = m002;
width = 1290;
},
{
associatedMasterId = m002;
attr = {
colorPalette = 0;
};
layerId = "EAC7EEBA-23BA-4159-8428-64F43F7750FD";
name = "18. Juni 24, 13:34";
shapes = (
{
closed = 1;
nodes = (
(716,392,o),
(773,449,o),
(773,520,cs),
(773,591,o),
(716,648,o),
(645,648,cs),
(574,648,o),
(517,591,o),
(517,520,cs),
(517,449,o),
(574,392,o),
(645,392,cs)
);
},
{
closed = 1;
nodes = (
(716,0,o),
(773,57,o),
(773,128,cs),
(773,199,o),
(716,256,o),
(645,256,cs),
(574,256,o),
(517,199,o),
(517,128,cs),
(517,57,o),
(574,0,o),
(645,0,cs)
);
}
);
width = 1290;
},
{
associatedMasterId = m01;
attr = {
colorPalette = 0;
};
layerId = "382E1B25-65A6-4DF3-9502-146E7312F45A";
name = "18. Juni 24, 13:34";
shapes = (
{
closed = 1;
nodes = (
(241,392,o),
(298,449,o),
(298,520,cs),
(298,591,o),
(241,648,o),
(170,648,cs),
(99,648,o),
(42,591,o),
(42,520,cs),
(42,449,o),
(99,392,o),
(170,392,cs)
);
},
{
closed = 1;
nodes = (
(241,0,o),
(298,57,o),
(298,128,cs),
(298,199,o),
(241,256,o),
(170,256,cs),
(99,256,o),
(42,199,o),
(42,128,cs),
(42,57,o),
(99,0,o),
(170,0,cs)
);
}
);
width = 340;
}
);
unicode = 8198;
},
{
glyphname = figurespace;
lastChange = "2024-06-18 11:23:36 +0000";
layers = (
{
layerId = m01;
width = 1290;
},
{
layerId = m002;
width = 1290;
},
{
associatedMasterId = m01;
attr = {
colorPalette = 0;
};
layerId = "D8C78B9B-D6A6-4297-9675-FE764FC2DCAF";
name = "18. Juni 24, 13:11";
shapes = (
{
closed = 1;
nodes = (
(816,-210,l),
(1086,1234,l),
(940,1234,l),
(855,786,l),
(859,786,l),
(762,273,l),
(758,273,l),
(670,-210,l)
);
},
{
closed = 1;
nodes = (
(1143,182,l),
(1172,328,l),
(835,328,l),
(835,324,l),
(352,324,l),
(352,328,l),
(55,328,l),
(26,182,l)
);
},
{
closed = 1;
nodes = (
(334,-210,l),
(423,273,l),
(419,273,l),
(516,786,l),
(520,786,l),
(604,1234,l),
(458,1234,l),
(188,-210,l)
);
},
{
closed = 1;
nodes = (
(708,392,o),
(765,449,o),
(765,520,cs),
(765,591,o),
(708,648,o),
(637,648,cs),
(566,648,o),
(509,591,o),
(509,520,cs),
(509,449,o),
(566,392,o),
(637,392,cs)
);
},
{
closed = 1;
nodes = (
(428,711,l),
(429,715,l),
(909,715,l),
(909,711,l),
(1235,711,l),
(1264,857,l),
(146,857,l),
(117,711,l)
);
}
);
width = 1290;
},
{
associatedMasterId = m002;
attr = {
colorPalette = 0;
};
layerId = "8BBEC682-ACA5-4E3F-846C-C0ACEE63F127";
name = "18. Juni 24, 13:23";
shapes = (
{
closed = 1;
nodes = (
(816,-210,l),
(1086,1234,l),
(940,1234,l),
(855,786,l),
(859,786,l),
(762,273,l),
(758,273,l),
(670,-210,l)
);
},
{
closed = 1;
nodes = (
(1143,182,l),
(1172,328,l),
(835,328,l),
(835,324,l),
(352,324,l),
(352,328,l),
(55,328,l),
(26,182,l)
);
},
{
closed = 1;
nodes = (
(334,-210,l),
(423,273,l),
(419,273,l),
(516,786,l),
(520,786,l),
(604,1234,l),
(458,1234,l),
(188,-210,l)
);
},
{
closed = 1;
nodes = (
(708,392,o),
(765,449,o),
(765,520,cs),
(765,591,o),
(708,648,o),
(637,648,cs),
(566,648,o),
(509,591,o),
(509,520,cs),
(509,449,o),
(566,392,o),
(637,392,cs)
);
},
{
closed = 1;
nodes = (
(428,711,l),
(429,715,l),
(909,715,l),
(909,711,l),
(1235,711,l),
(1264,857,l),
(146,857,l),
(117,711,l)
);
}
);
width = 1290;
}
);
unicode = 8199;
},
{
glyphname = punctuationspace;
lastChange = "2024-06-18 11:24:09 +0000";
layers = (
{
layerId = m01;
width = 608;
},
{
layerId = m002;
width = 1290;
},
{
associatedMasterId = m01;
attr = {
colorPalette = 0;
};
layerId = "4F08E145-7CF7-48C4-952D-209CF44DC02B";
name = "18. Juni 24, 13:11";
shapes = (
{
closed = 1;
nodes = (
(382,479,l),
(394,1443,l),
(214,1443,l),
(226,479,l)
);
},
{
attr = {
fillColor = (135,255);
};
closed = 1;
nodes = (
(375,0,o),
(432,57,o),
(432,128,cs),
(432,199,o),
(375,256,o),
(304,256,cs),
(233,256,o),
(176,199,o),
(176,128,cs),
(176,57,o),
(233,0,o),
(304,0,cs)
);
},
{
attr = {
fillColor = (135,255);
};
closed = 1;
nodes = (
(375,392,o),
(432,449,o),
(432,520,cs),
(432,591,o),
(375,648,o),
(304,648,cs),
(233,648,o),
(176,591,o),
(176,520,cs),
(176,449,o),
(233,392,o),
(304,392,cs)
);
}
);
width = 608;
},
{
associatedMasterId = m002;
attr = {
colorPalette = 0;
};
layerId = "B3E5005F-A090-440C-B4CD-B998B5DB3ED4";
name = "18. Juni 24, 13:23";
shapes = (
{
closed = 1;
nodes = (
(723,479,l),
(735,1443,l),
(555,1443,l),
(567,479,l)
);
},
{
attr = {
fillColor = (135,255);
};
closed = 1;
nodes = (
(716,0,o),
(773,57,o),
(773,128,cs),
(773,199,o),
(716,256,o),
(645,256,cs),
(574,256,o),
(517,199,o),
(517,128,cs),
(517,57,o),
(574,0,o),
(645,0,cs)
);
},
{
attr = {
fillColor = (135,255);
};
closed = 1;
nodes = (
(716,392,o),
(773,449,o),
(773,520,cs),
(773,591,o),
(716,648,o),
(645,648,cs),
(574,648,o),
(517,591,o),
(517,520,cs),
(517,449,o),
(574,392,o),
(645,392,cs)
);
}
);
width = 1290;
}
);
unicode = 8200;
},
{
glyphname = thinspace;
lastChange = "2024-06-18 11:24:37 +0000";
layers = (
{
layerId = m01;
width = 288;
},
{
layerId = m002;
width = 1290;
},
{
associatedMasterId = m01;
attr = {
colorPalette = 0;
};
layerId = "983FFF12-EC05-43BD-8B5D-95FE726E318D";
name = "18. Juni 24, 13:11";
shapes = (
{
attr = {
fillColor = (135,255);
};
closed = 1;
nodes = (
(248,762,l),
(428,1348,l),
(300,1348,l),
(125,771,l),
(175,771,l),
(0,1348,l),
(-128,1348,l),
(52,762,l)
);
},
{
attr = {
fillColor = (135,255);
};
closed = 1;
nodes = (
(221,392,o),
(278,449,o),
(278,520,cs),
(278,591,o),
(221,648,o),
(150,648,cs),
(79,648,o),
(22,591,o),
(22,520,cs),
(22,449,o),
(79,392,o),
(150,392,cs)
);
}
);
width = 288;
},
{
associatedMasterId = m002;
attr = {
colorPalette = 0;
};
layerId = "F2B5F7F5-6366-4A7A-9307-3053AE188402";
name = "18. Juni 24, 13:24";
shapes = (
{
attr = {
fillColor = (135,255);
};
closed = 1;
nodes = (
(743,762,l),
(923,1348,l),
(795,1348,l),
(620,771,l),
(670,771,l),
(495,1348,l),
(367,1348,l),
(547,762,l)
);
},
{
attr = {
fillColor = (135,255);
};
closed = 1;
nodes = (
(716,392,o),
(773,449,o),
(773,520,cs),
(773,591,o),
(716,648,o),
(645,648,cs),
(574,648,o),
(517,591,o),
(517,520,cs),
(517,449,o),
(574,392,o),
(645,392,cs)
);
}
);
width = 1290;
}
);
unicode = 8201;
},
{
glyphname = hairspace;
lastChange = "2024-06-18 11:24:56 +0000";
layers = (
{
layerId = m01;
width = 144;
},
{
layerId = m002;
width = 1290;
},
{
associatedMasterId = m01;
attr = {
colorPalette = 0;
};
layerId = "3B50D537-1807-4DDA-94A9-7DE57FEEB335";
name = "18. Juni 24, 13:11";
shapes = (
{
closed = 1;
nodes = (
(140,392,o),
(197,449,o),
(197,520,cs),
(197,591,o),
(140,648,o),
(69,648,cs),
(-2,648,o),
(-59,591,o),
(-59,520,cs),
(-59,449,o),
(-2,392,o),
(69,392,cs)
);
},
{
closed = 1;
nodes = (
(-33,960,o),
(2,995,o),
(2,1040,cs),
(2,1085,o),
(-33,1120,o),
(-78,1120,cs),
(-122,1120,o),
(-158,1085,o),
(-158,1040,cs),
(-158,995,o),
(-122,960,o),
(-78,960,cs)
);
},
{
closed = 1;
nodes = (
(267,960,o),
(302,995,o),
(302,1040,cs),
(302,1085,o),
(267,1120,o),
(222,1120,cs),
(177,1120,o),
(142,1085,o),
(142,1040,cs),
(142,995,o),
(177,960,o),
(222,960,cs)
);
}
);
width = 144;
},
{
associatedMasterId = m002;
attr = {
colorPalette = 0;
};
layerId = "789C874E-FCC5-4D49-813D-94B7E94CA0B0";
name = "18. Juni 24, 13:24";
shapes = (
{
closed = 1;
nodes = (
(713,392,o),
(770,449,o),
(770,520,cs),
(770,591,o),
(713,648,o),
(642,648,cs),
(571,648,o),
(514,591,o),
(514,520,cs),
(514,449,o),
(571,392,o),
(642,392,cs)
);
},
{
closed = 1;
nodes = (
(540,960,o),
(575,995,o),
(575,1040,cs),
(575,1085,o),
(540,1120,o),
(495,1120,cs),
(451,1120,o),
(415,1085,o),
(415,1040,cs),
(415,995,o),
(451,960,o),
(495,960,cs)
);
},
{
closed = 1;
nodes = (
(840,960,o),
(875,995,o),
(875,1040,cs),
(875,1085,o),
(840,1120,o),
(795,1120,cs),
(750,1120,o),
(715,1085,o),
(715,1040,cs),
(715,995,o),
(750,960,o),
(795,960,cs)
);
}
);
width = 1290;
}
);
unicode = 8202;
},
{
glyphname = zerowidthspace;
lastChange = "2024-06-18 11:25:28 +0000";
layers = (
{
layerId = m01;
width = 0;
},
{
layerId = m002;
width = 0;
},
{
associatedMasterId = m01;
attr = {
colorPalette = 0;
};
layerId = "6BCF6FCB-F9FB-40F3-83A0-1487D1C24975";
name = "18. Juni 24, 13:11";
shapes = (
{
closed = 1;
nodes = (
(64,1015,l),
(64,1518,l),
(-64,1518,l),
(-64,1015,l)
);
},
{
closed = 1;
nodes = (
(64,-494,l),
(64,9,l),
(-64,9,l),
(-64,-494,l)
);
},
{
closed = 1;
nodes = (
(64,261,l),
(64,764,l),
(-64,764,l),
(-64,261,l)
);
}
);
width = 0;
},
{
associatedMasterId = m002;
attr = {
colorPalette = 0;
};
layerId = "7D335CAB-FB9B-4C1C-AD38-4DF112CF940A";
name = "18. Juni 24, 13:25";
shapes = (
{
closed = 1;
nodes = (
(64,1015,l),
(64,1518,l),
(-64,1518,l),
(-64,1015,l)
);
},
{
closed = 1;
nodes = (
(64,-494,l),
(64,9,l),
(-64,9,l),
(-64,-494,l)
);
},
{
closed = 1;
nodes = (
(64,261,l),
(64,764,l),
(-64,764,l),
(-64,261,l)
);
}
);
width = 0;
}
);
unicode = 8203;
},
{
glyphname = narrownbspace;
lastChange = "2024-06-18 11:35:37 +0000";
layers = (
{
layerId = m01;
width = 288;
},
{
layerId = m002;
width = 1290;
},
{
associatedMasterId = m01;
attr = {
colorPalette = 0;
};
layerId = "59658183-C29E-4745-915C-250C98261D88";
name = "18. Juni 24, 13:11";
shapes = (
{
attr = {
fillColor = (135,255);
};
closed = 1;
nodes = (
(-6,762,l),
(169,1339,l),
(119,1339,l),
(294,762,l),
(422,762,l),
(242,1348,l),
(46,1348,l),
(-134,762,l)
);
},
{
attr = {
fillColor = (135,255);
};
closed = 1;
nodes = (
(215,392,o),
(272,449,o),
(272,520,cs),
(272,591,o),
(215,648,o),
(144,648,cs),
(73,648,o),
(16,591,o),
(16,520,cs),
(16,449,o),
(73,392,o),
(144,392,cs)
);
}
);
width = 288;
},
{
associatedMasterId = m002;
attr = {
colorPalette = 0;
};
layerId = "8A719E06-F619-45B7-9D2D-BB43988F48D5";
name = "18. Juni 24, 13:26";
shapes = (
{
attr = {
fillColor = (135,255);
};
closed = 1;
nodes = (
(495,762,l),
(670,1339,l),
(620,1339,l),
(795,762,l),
(923,762,l),
(743,1348,l),
(547,1348,l),
(367,762,l)
);
},
{
attr = {
fillColor = (135,255);
};
closed = 1;
nodes = (
(716,392,o),
(773,449,o),
(773,520,cs),
(773,591,o),
(716,648,o),
(645,648,cs),
(574,648,o),
(517,591,o),
(517,520,cs),
(517,449,o),
(574,392,o),
(645,392,cs)
);
}
);
width = 1290;
}
);
unicode = 8239;
},
{
glyphname = "mediumspace-math";
lastChange = "2024-06-18 11:37:43 +0000";
layers = (
{
layerId = m01;
width = 455;
},
{
layerId = m002;
width = 1290;
},
{
associatedMasterId = m002;
attr = {
colorPalette = 0;
};
layerId = "4AFF0528-BB7C-4ED4-BFDF-1D41E498FC2A";
name = "18. Juni 24, 13:37";
shapes = (
{
closed = 1;
nodes = (
(1138,1188,l),
(1168,1334,l),
(144,1334,l),
(144,1188,l)
);
},
{
closed = 1;
nodes = (
(716,392,o),
(773,449,o),
(773,520,cs),
(773,591,o),
(716,648,o),
(645,648,cs),
(574,648,o),
(517,591,o),
(517,520,cs),
(517,449,o),
(574,392,o),
(645,392,cs)
);
},
{
closed = 1;
nodes = (
(1168,822,l),
(1168,1334,l),
(1022,1304,l),
(1022,822,l)
);
}
);
width = 1290;
},
{
associatedMasterId = m01;
attr = {
colorPalette = 0;
};
layerId = "99F95A65-A0FF-4E5A-B02B-4E0BAC6F0EE1";
name = "18. Juni 24, 13:37";
shapes = (
{
closed = 1;
nodes = (
(720,1188,l),
(750,1334,l),
(-274,1334,l),
(-274,1188,l)
);
},
{
closed = 1;
nodes = (
(298,392,o),
(355,449,o),
(355,520,cs),
(355,591,o),
(298,648,o),
(227,648,cs),
(156,648,o),
(99,591,o),
(99,520,cs),
(99,449,o),
(156,392,o),
(227,392,cs)
);
},
{
closed = 1;
nodes = (
(750,822,l),
(750,1334,l),
(604,1304,l),
(604,822,l)
);
}
);
width = 455;
}
);
unicode = 8287;
},
{
glyphname = .notdef;
lastChange = "2024-06-18 11:36:31 +0000";
layers = (
{
layerId = m01;
width = 911;
},
{
layerId = m002;
width = 1290;
},
{
associatedMasterId = m01;
attr = {
colorPalette = 0;
};
layerId = "CA6960B7-B2E3-4E4E-AB28-FDD1B159FF1F";
name = "18. Juni 24, 13:11";
shapes = (
{
closed = 1;
nodes = (
(498,366,l),
(498,417,ls),
(498,501,o),
(529,545,o),
(638,606,cs),
(749,670,o),
(817,759,o),
(817,884,cs),
(817,886,ls),
(817,1055,o),
(668,1182,o),
(447,1182,cs),
(204,1182,o),
(76,1043,o),
(68,864,cs),
(68,863,l),
(230,863,l),
(231,864,l),
(239,975,o),
(317,1045,o),
(440,1045,cs),
(560,1045,o),
(639,974,o),
(639,879,cs),
(639,877,ls),
(639,793,o),
(602,744,o),
(501,685,cs),
(384,619,o),
(331,546,o),
(334,436,cs),
(334,366,l)
);
},
{
closed = 1;
nodes = (
(502,-13,o),
(552,35,o),
(552,104,cs),
(552,173,o),
(502,221,o),
(427,221,cs),
(353,221,o),
(302,173,o),
(302,104,cs),
(302,35,o),
(353,-13,o),
(427,-13,cs)
);
}
);
width = 911;
},
{
associatedMasterId = m002;
attr = {
colorPalette = 0;
};
layerId = "F3E05C91-BEFE-44BE-9801-8AA3D65140E2";
name = "18. Juni 24, 13:36";
shapes = (
{
closed = 1;
nodes = (
(688,366,l),
(688,417,ls),
(688,501,o),
(719,545,o),
(828,606,cs),
(939,670,o),
(1007,759,o),
(1007,884,cs),
(1007,886,ls),
(1007,1055,o),
(858,1182,o),
(637,1182,cs),
(394,1182,o),
(266,1043,o),
(258,864,cs),
(258,863,l),
(420,863,l),
(421,864,l),
(429,975,o),
(507,1045,o),
(630,1045,cs),
(750,1045,o),
(829,974,o),
(829,879,cs),
(829,877,ls),
(829,793,o),
(792,744,o),
(691,685,cs),
(574,619,o),
(521,546,o),
(524,436,cs),
(524,366,l)
);
},
{
closed = 1;
nodes = (
(692,-13,o),
(742,35,o),
(742,104,cs),
(742,173,o),
(692,221,o),
(617,221,cs),
(543,221,o),
(492,173,o),
(492,104,cs),
(492,35,o),
(543,-13,o),
(617,-13,cs)
);
}
);
width = 1290;
}
);
},
{
export = 0;
glyphname = numbersign;
lastChange = "2024-06-18 11:26:55 +0000";
layers = (
{
layerId = m01;
width = 1290;
},
{
layerId = m002;
width = 1290;
},
{
associatedMasterId = m01;
attr = {
colorPalette = 0;
};
layerId = "D78CE084-376C-4050-B0B6-EED5349162BD";
name = "18. Juni 24, 13:11";
shapes = (
{
closed = 1;
nodes = (
(325,0,l),
(407,403,l),
(736,403,l),
(653,0,l),
(796,0,l),
(879,403,l),
(1140,403,l),
(1168,547,l),
(908,547,l),
(983,911,l),
(1233,911,l),
(1261,1054,l),
(1012,1054,l),
(1092,1443,l),
(949,1443,l),
(869,1054,l),
(540,1054,l),
(620,1443,l),
(478,1443,l),
(398,1054,l),
(150,1054,l),
(121,911,l),
(369,911,l),
(295,547,l),
(58,547,l),
(30,403,l),
(265,403,l),
(183,0,l)
);
},
{
closed = 1;
nodes = (
(511,911,l),
(840,911,l),
(766,547,l),
(437,547,l)
);
}
);
width = 1290;
},
{
associatedMasterId = m002;
attr = {
colorPalette = 0;
};
layerId = "4FE7AB7A-3CFB-4551-ACB1-800AC3C5221A";
name = "18. Juni 24, 13:26";
shapes = (
{
closed = 1;
nodes = (
(325,0,l),
(407,403,l),
(736,403,l),
(653,0,l),
(796,0,l),
(879,403,l),
(1140,403,l),
(1168,547,l),
(908,547,l),
(983,911,l),
(1233,911,l),
(1261,1054,l),
(1012,1054,l),
(1092,1443,l),
(949,1443,l),
(869,1054,l),
(540,1054,l),
(620,1443,l),
(478,1443,l),
(398,1054,l),
(150,1054,l),
(121,911,l),
(369,911,l),
(295,547,l),
(58,547,l),
(30,403,l),
(265,403,l),
(183,0,l)
);
},
{
closed = 1;
nodes = (
(511,911,l),
(840,911,l),
(766,547,l),
(437,547,l)
);
}
);
width = 1290;
}
);
unicode = 35;
},
{
glyphname = softhyphen;
lastChange = "2024-06-18 11:27:29 +0000";
layers = (
{
layerId = m01;
width = 0;
},
{
layerId = m002;
width = 0;
},
{
associatedMasterId = m01;
attr = {
colorPalette = 0;
};
layerId = "7C7A774D-98A0-49C8-9141-B3AAF574AD60";
name = "18. Juni 24, 13:11";
shapes = (
{
closed = 1;
nodes = (
(64,-494,l),
(64,1518,l),
(-64,1518,l),
(-64,-494,l)
);
}
);
width = 0;
},
{
associatedMasterId = m002;
attr = {
colorPalette = 0;
};
layerId = "69489ECC-B6A2-4AC7-9DDA-A8662BA94230";
name = "18. Juni 24, 13:27";
shapes = (
{
closed = 1;
nodes = (
(64,-494,l),
(64,1518,l),
(-64,1518,l),
(-64,-494,l)
);
}
);
width = 0;
}
);
unicode = 173;
},
{
export = 0;
glyphname = paragraph;
lastChange = "2024-06-18 11:27:55 +0000";
layers = (
{
layerId = m01;
width = 1224;
},
{
layerId = m002;
width = 1290;
},
{
associatedMasterId = m01;
attr = {
colorPalette = 0;
};
layerId = "2E0C41E7-FB5E-4D96-A762-B3F6D878757A";
name = "18. Juni 24, 13:11";
shapes = (
{
closed = 1;
nodes = (
(728,-220,l),
(728,1443,l),
(550,1443,ls),
(295,1443,o),
(96,1267,o),
(96,1022,cs),
(96,1020,ls),
(97,785,o),
(294,614,o),
(549,614,cs),
(568,614,l),
(568,-220,l)
);
},
{
closed = 1;
nodes = (
(1040,-220,l),
(1040,1443,l),
(880,1443,l),
(880,-220,l)
);
}
);
width = 1224;
},
{
associatedMasterId = m002;
attr = {
colorPalette = 0;
};
layerId = "55BCB550-0819-4331-990C-F8D39B32C665";
name = "18. Juni 24, 13:27";
shapes = (
{
closed = 1;
nodes = (
(761,-220,l),
(761,1443,l),
(583,1443,ls),
(328,1443,o),
(129,1267,o),
(129,1022,cs),
(129,1020,ls),
(130,785,o),
(327,614,o),
(582,614,cs),
(601,614,l),
(601,-220,l)
);
},
{
closed = 1;
nodes = (
(1073,-220,l),
(1073,1443,l),
(913,1443,l),
(913,-220,l)
);
}
);
width = 1290;
}
);
unicode = 182;
},
{
glyphname = paragraphend;
lastChange = "2024-06-18 12:58:29 +0000";
layers = (
{
layerId = m01;
width = 1224;
},
{
layerId = m002;
width = 1290;
},
{
associatedMasterId = m01;
attr = {
colorPalette = 0;
};
layerId = "A4976799-312B-4FBC-A85C-750E6829C84C";
name = "18. Juni 24, 13:11";
shapes = (
{
closed = 1;
nodes = (
(728,-220,l),
(728,1443,l),
(550,1443,ls),
(295,1443,o),
(96,1267,o),
(96,1022,cs),
(96,1020,ls),
(97,785,o),
(294,614,o),
(549,614,cs),
(568,614,l),
(568,-220,l)
);
},
{
closed = 1;
nodes = (
(1040,-220,l),
(1040,1443,l),
(880,1443,l),
(880,-220,l)
);
}
);
width = 1224;
},
{
associatedMasterId = m002;
attr = {
colorPalette = 0;
};
layerId = "46435ED0-7A1D-46B3-9427-8B27A1036C7B";
name = "18. Juni 24, 13:28";
shapes = (
{
closed = 1;
nodes = (
(761,-220,l),
(761,1443,l),
(583,1443,ls),
(328,1443,o),
(129,1267,o),
(129,1022,cs),
(129,1020,ls),
(130,785,o),
(327,614,o),
(582,614,cs),
(601,614,l),
(601,-220,l)
);
},
{
closed = 1;
nodes = (
(1073,-220,l),
(1073,1443,l),
(913,1443,l),
(913,-220,l)
);
}
);
width = 1290;
}
);
metricLeft = paragraph;
metricRight = paragraph;
metricWidth = paragraph;
unicode = 57344;
},
{
glyphname = totalparagraphend;
lastChange = "2024-06-18 12:58:06 +0000";
layers = (
{
layerId = m01;
width = 1290;
},
{
layerId = m002;
width = 1290;
},
{
associatedMasterId = m01;
attr = {
colorPalette = 0;
};
layerId = "7EABE967-90C4-426F-AC06-70C90B28DEF1";
name = "18. Juni 24, 13:11";
shapes = (
{
closed = 1;
nodes = (
(325,0,l),
(407,403,l),
(736,403,l),
(653,0,l),
(796,0,l),
(879,403,l),
(1140,403,l),
(1168,547,l),
(908,547,l),
(983,911,l),
(1233,911,l),
(1261,1054,l),
(1012,1054,l),
(1092,1443,l),
(949,1443,l),
(869,1054,l),
(540,1054,l),
(620,1443,l),
(478,1443,l),
(398,1054,l),
(150,1054,l),
(121,911,l),
(369,911,l),
(295,547,l),
(58,547,l),
(30,403,l),
(265,403,l),
(183,0,l)
);
},
{
closed = 1;
nodes = (
(511,911,l),
(840,911,l),
(766,547,l),
(437,547,l)
);
}
